                     $$TheAaax9$$

Its A Boy Girl Thing[dual-audio][eng-hindi]by TheAaax9

screenshots :- 
http://www.freeimagehosting.net/image.php?036af7398b.png 
http://www.freeimagehosting.net/image.php?be6986552f.png 
http://www.freeimagehosting.net/image.php?486e0b7656.png 
http://www.freeimagehosting.net/image.php?c6a067e648.png 
http://www.freeimagehosting.net/image.php?cdd676dd8f.png 
http://www.freeimagehosting.net/image.php?152a2bcf48.png


General
Complete name                    : Its A Boy Girl Thing[dual-audio[eng-hindi]TheAaax9
Format                           : Matroska
File size                        : 899 MiB
Duration                         : 1h 30mn
Overall bit rate                 : 1 383 Kbps

Video
Format                           : MPEG-4 Visual
Format profile                   : AdvancedSimple@L5
Format settings, BVOP            : Yes
Format settings, QPel            : No
Format settings, GMC             : No warppoints
Format settings, Matrix          : Default (H.263)
Codec ID                         : XVID
Codec ID/Hint                    : XviD
Duration                         : 1h 30mn
Bit rate                         : 911 Kbps
Width                            : 640 pixels
Height                           : 272 pixels
Display aspect ratio             : 2.35:1
Frame rate                       : 25.000 fps
Resolution                       : 24 bits
Colorimetry                      : 4:2:0
Scan type                        : Progressive
Bits/(Pixel*Frame)               : 0.209
Stream size                      : 592 MiB (66%)

Audio #1
Language                         : English
Format                           : MPEG Audio
Format version                   : Version 1
Format profile                   : Layer 3
Codec ID                         : A_MPEG/L3
Codec ID/Hint                    : MP3
Duration                         : 1h 30mn
Bit rate mode                    : Variable
Bit rate                         : 125 Kbps
Nominal bit rate                 : 130 Kbps
Channel(s)                       : 2 channels
Sampling rate                    : 48.0 KHz
Resolution                       : 16 bits
Stream size                      : 81.2 MiB (9%)
Writing library                  : LAME3.90.
Encoding settings                : -m j -V 4 -q 2 -lowpass 17.6 --abr 130

Audio #2
Language                         : Hindi
Format                           : MPEG Audio
Format version                   : Version 1
Format profile                   : Layer 3
Codec ID                         : A_MPEG/L3
Codec ID/Hint                    : MP3
Duration                         : 1h 30mn
Bit rate mode                    : Constant
Bit rate                         : 320 Kbps
Channel(s)                       : 2 channels
Sampling rate                    : 44.1 KHz
Resolution                       : 16 bits
Stream size                      : 208 MiB (23%)
Writing library                  : LAME3.98.2


                $$TheAaax9$$
screenshots :- 
http://www.freeimagehosting.net/image.php?036af7398b.png 
http://www.freeimagehosting.net/image.php?be6986552f.png 
http://www.freeimagehosting.net/image.php?486e0b7656.png 
http://www.freeimagehosting.net/image.php?c6a067e648.png 
http://www.freeimagehosting.net/image.php?cdd676dd8f.png 
http://www.freeimagehosting.net/image.php?152a2bcf48.png


                            by TheAaax9

                      $$TheAaax9$$
